<svg xmlns="http://www.w3.org/2000/svg" viewBox="0 0 24 24" width="24" height="24">
  <rect width="24" height="24" rx="4" fill="#0f172a"/>
  <path fill="#fff" d="M12 .5C5.7.5.6 5.6.6 11.9c0 5 3.2 9.2 7.7 10.7.6.1.8-.2.8-.6v-2.1c-3.1.7-3.8-1.4-3.8-1.4-.5-1.2-1.2-1.6-1.2-1.6-1-.7.1-.7.1-.7 1.1.1 1.7 1.1 1.7 1.1 1 .1 1.7.8 2.1 1.1.1-.9.4-1.6.7-2-2.5-.3-5.1-1.3-5.1-5.9 0-1.3.5-2.3 1.2-3.1-.1-.3-.5-1.6.1-3.3 0 0 1-.3 3.3 1.2.9-.3 1.9-.5 2.9-.5s2 .2 2.9.5c2.3-1.5 3.3-1.2 3.3-1.2.6 1.7.2 3 .1 3.3.8.8 1.2 1.8 1.2 3.1 0 4.6-2.6 5.6-5.1 5.9.4.3.8 1 .8 2v3c0 .4.2.7.8.6 4.5-1.5 7.7-5.7 7.7-10.7C23.4 5.6 18.3.5 12 .5z"/>
</svg>